<svg width="24" height="24" viewBox="0 0 24 24" fill="none" xmlns="http://www.w3.org/2000/svg">
<g id="send-diagonal1">
<path id="Vector" fill-rule="evenodd" clip-rule="evenodd" d="M10.336 12.7428L11.5518 19L19.5405 6.29771L10.336 12.7428ZM21.9753 2.8242L1.84194 7.1648C1.54112 7.22965 1.31044 7.47168 1.2601 7.77527C1.20976 8.07886 1.34998 8.38238 1.61377 8.54086L8.83432 12.8787L10.441 21.1474C10.4997 21.4495 10.737 21.6851 11.0395 21.7416C11.3419 21.7982 11.6483 21.6642 11.8121 21.4037L22.7791 3.96575C22.8119 3.9158 22.8384 3.86245 22.8583 3.80696C22.8808 3.74431 22.8947 3.6794 22.9 3.61399C22.9138 3.4458 22.8712 3.27201 22.7669 3.12298C22.5845 2.86256 22.2666 2.75344 21.9753 2.8242ZM18.6799 5.06912L9.47555 11.5141L4.01158 8.23151L18.6799 5.06912Z" fill="#6B7280"/>
</g>
</svg>
