<svg width="24" height="24" viewBox="0 0 24 24" fill="none" xmlns="http://www.w3.org/2000/svg">
<g id="Cart 5">
<path id="Union" fill-rule="evenodd" clip-rule="evenodd" d="M14.6646 2.32934C15.0351 2.1441 15.4856 2.29427 15.6708 2.66475L17.484 6.29118C17.9116 6.31292 18.3015 6.34613 18.6548 6.39686C19.7105 6.54844 20.5843 6.87431 21.2053 7.64246C21.8263 8.41061 21.9618 9.33328 21.8888 10.3973C21.8181 11.4285 21.5394 12.7289 21.191 14.3545L20.7396 16.4612C20.5047 17.5577 20.3141 18.4471 20.0743 19.1419C19.8244 19.866 19.4949 20.4614 18.9323 20.9162C18.3696 21.3711 17.7184 21.5685 16.958 21.6611C16.2284 21.75 15.3188 21.75 14.1974 21.75H9.80252C8.6812 21.75 7.77159 21.75 7.04196 21.6611C6.28159 21.5685 5.63033 21.3711 5.06769 20.9162C4.50505 20.4614 4.17561 19.866 3.92569 19.1419C3.68586 18.4471 3.49529 17.5576 3.26035 16.4612L2.80893 14.3545C2.46055 12.7289 2.18188 11.4285 2.11115 10.3973C2.03816 9.33328 2.17371 8.41061 2.7947 7.64246C3.41568 6.87431 4.28946 6.54844 5.34519 6.39686C5.69851 6.34613 6.08842 6.31292 6.51598 6.29118L8.3292 2.66475C8.51444 2.29427 8.96495 2.1441 9.33543 2.32934C9.70591 2.51459 9.85608 2.96509 9.67084 3.33557L8.21259 6.25206C8.57611 6.24999 8.95871 6.25 9.36076 6.25H14.6392H14.6392C15.0413 6.25 15.4239 6.24999 15.7874 6.25206L14.3292 3.33557C14.1439 2.96509 14.2941 2.51459 14.6646 2.32934ZM5.73223 7.85869L5.3292 8.66475C5.14396 9.03524 5.29412 9.48574 5.66461 9.67099C6.03509 9.85623 6.4856 9.70606 6.67084 9.33558L7.45817 7.76091C8.02854 7.75034 8.67793 7.75 9.42191 7.75H14.5781C15.3221 7.75 15.9715 7.75034 16.5418 7.76091L17.3292 9.33558C17.5144 9.70606 17.9649 9.85623 18.3354 9.67099C18.7059 9.48574 18.856 9.03524 18.6708 8.66475L18.2678 7.8587C18.327 7.86586 18.3849 7.8735 18.4416 7.88163C19.3255 8.00854 19.7592 8.23966 20.0388 8.58548C20.3136 8.92547 20.4488 9.38793 20.3953 10.25H3.60471C3.55112 9.38793 3.68634 8.92547 3.9612 8.58548C4.24076 8.23966 4.67448 8.00854 5.55837 7.88163C5.61506 7.87349 5.67299 7.86586 5.73223 7.85869ZM4.28844 14.1C4.09145 13.1807 3.92663 12.409 3.80694 11.75H20.193C20.0733 12.409 19.9085 13.1807 19.7115 14.1L19.2829 16.1C19.0355 17.2546 18.8629 18.0541 18.6564 18.6525C18.4565 19.2314 18.2517 19.5376 17.9893 19.7497C17.7268 19.9619 17.3845 20.098 16.7766 20.1721C16.1482 20.2487 15.3302 20.25 14.1495 20.25H9.85048C8.66972 20.25 7.85175 20.2487 7.22341 20.1721C6.61545 20.098 6.27314 19.9619 6.01071 19.7497C5.74827 19.5376 5.54343 19.2314 5.3436 18.6525C5.13707 18.0541 4.96442 17.2546 4.71701 16.1L4.28844 14.1ZM10 13.25C9.58579 13.25 9.25 13.5858 9.25 14C9.25 14.4142 9.58579 14.75 10 14.75H14C14.4142 14.75 14.75 14.4142 14.75 14C14.75 13.5858 14.4142 13.25 14 13.25H10Z" fill="#374151"/>
</g>
</svg>
