<svg width="24" height="24" viewBox="0 0 24 24" fill="none" xmlns="http://www.w3.org/2000/svg">
<path fill-rule="evenodd" clip-rule="evenodd" d="M9.33213 2.08959C9.03772 1.91198 8.65508 2.00666 8.47747 2.30106C8.29986 2.59547 8.39454 2.97811 8.68895 3.15572L8.95756 3.31778C5.37314 4.57398 2.80273 7.98644 2.80273 12C2.80273 16.5479 6.10314 20.324 10.4395 21.0656C10.7784 21.1236 11.1001 20.8958 11.1581 20.5569C11.216 20.218 10.9883 19.8963 10.6494 19.8383C6.90094 19.1973 4.04786 15.9311 4.04786 12C4.04786 8.56408 6.22746 5.63611 9.27944 4.52495L9.12268 4.80319C8.95391 5.10275 9.05994 5.48241 9.3595 5.65118C9.65906 5.81995 10.0387 5.71393 10.2075 5.41437L11.0868 3.8536C11.252 3.56033 11.1542 3.18883 10.866 3.01495L9.33213 2.08959ZM13.5613 2.93436C13.2224 2.8764 12.9007 3.10415 12.8427 3.44306C12.7848 3.78198 13.0125 4.10371 13.3514 4.16167C17.0998 4.80275 19.9529 8.06893 19.9529 12C19.9529 15.4359 17.7733 18.3639 14.7213 19.4751L14.8781 19.1968C15.0469 18.8972 14.9409 18.5176 14.6413 18.3488C14.3417 18.18 13.9621 18.2861 13.7933 18.5856L12.914 20.1464C12.7487 20.4397 12.8465 20.8112 13.1348 20.9851L14.6687 21.9104C14.9631 22.088 15.3457 21.9933 15.5233 21.6989C15.7009 21.4045 15.6062 21.0219 15.3118 20.8443L15.0432 20.6822C18.6277 19.426 21.198 16.0136 21.198 12C21.198 7.45209 17.8977 3.67599 13.5613 2.93436ZM12.0004 6.28022C10.0018 6.28022 8.38172 7.90034 8.38172 9.89886V10.374C7.84336 10.6439 7.47383 11.2008 7.47383 11.8441V15.5316C7.47383 16.4392 8.20963 17.1751 9.11731 17.1751H14.8834C15.7911 17.1751 16.5269 16.4392 16.5269 15.5316V11.8441C16.5269 11.2008 16.1574 10.6439 15.619 10.374V9.89886C15.619 7.90034 13.9989 6.28022 12.0004 6.28022ZM14.3739 9.89886V10.2006H9.62684V9.89886C9.62684 8.588 10.6895 7.52534 12.0004 7.52534C13.3112 7.52534 14.3739 8.588 14.3739 9.89886ZM8.71895 11.8441C8.71895 11.624 8.8973 11.4457 9.11731 11.4457H14.8834C15.1035 11.4457 15.2818 11.624 15.2818 11.8441V15.5316C15.2818 15.7516 15.1034 15.9299 14.8834 15.9299H9.11731C8.8973 15.9299 8.71895 15.7516 8.71895 15.5316V11.8441ZM12.6229 13.284C12.6229 12.9402 12.3442 12.6615 12.0004 12.6615C11.6565 12.6615 11.3778 12.9402 11.3778 13.284V14.0916C11.3778 14.4354 11.6565 14.7141 12.0004 14.7141C12.3442 14.7141 12.6229 14.4354 12.6229 14.0916V13.284Z" fill="#6B7280"/>
<path d="M8.47747 2.30106L8.39184 2.24941V2.24941L8.47747 2.30106ZM9.33213 2.08959L9.38379 2.00396V2.00396L9.33213 2.08959ZM8.68895 3.15572L8.63729 3.24135L8.68895 3.15572ZM8.95756 3.31778L8.99064 3.41215C9.02719 3.39934 9.05306 3.36657 9.05703 3.32804C9.06101 3.28952 9.04238 3.25216 9.00922 3.23215L8.95756 3.31778ZM10.4395 21.0656L10.4226 21.1642H10.4226L10.4395 21.0656ZM11.1581 20.5569L11.2566 20.5738V20.5738L11.1581 20.5569ZM10.6494 19.8383L10.6325 19.9369H10.6325L10.6494 19.8383ZM9.27944 4.52495L9.36657 4.57404C9.38711 4.53758 9.38277 4.49218 9.3557 4.46027C9.32863 4.42835 9.28455 4.41667 9.24523 4.43098L9.27944 4.52495ZM9.12268 4.80319L9.20981 4.85228L9.20981 4.85228L9.12268 4.80319ZM9.3595 5.65118L9.31041 5.73831L9.3595 5.65118ZM10.2075 5.41437L10.2946 5.46345H10.2946L10.2075 5.41437ZM11.0868 3.8536L11.1739 3.90269L11.0868 3.8536ZM10.866 3.01495L10.8143 3.10057L10.866 3.01495ZM12.8427 3.44306L12.7442 3.42621L12.8427 3.44306ZM13.5613 2.93436L13.5782 2.8358L13.5613 2.93436ZM13.3514 4.16167L13.3346 4.26024L13.3514 4.16167ZM14.7213 19.4751L14.6342 19.426C14.6137 19.4624 14.618 19.5078 14.6451 19.5397C14.6721 19.5717 14.7162 19.5833 14.7556 19.569L14.7213 19.4751ZM14.8781 19.1968L14.9652 19.2459L14.8781 19.1968ZM14.6413 18.3488L14.5922 18.4359H14.5922L14.6413 18.3488ZM13.7933 18.5856L13.7062 18.5365L13.7933 18.5856ZM12.914 20.1464L13.0011 20.1955L12.914 20.1464ZM13.1348 20.9851L13.1864 20.8994L13.1348 20.9851ZM14.6687 21.9104L14.617 21.996L14.6687 21.9104ZM15.5233 21.6989L15.4377 21.6473L15.5233 21.6989ZM15.3118 20.8443L15.2602 20.9299H15.2602L15.3118 20.8443ZM15.0432 20.6822L15.0102 20.5879C14.9736 20.6007 14.9477 20.6334 14.9438 20.672C14.9398 20.7105 14.9584 20.7478 14.9916 20.7679L15.0432 20.6822ZM8.38172 10.374L8.42653 10.4634C8.46036 10.4464 8.48172 10.4118 8.48172 10.374H8.38172ZM16.5269 15.5316L16.6269 15.5316V15.5316H16.5269ZM15.619 10.374H15.519C15.519 10.4118 15.5404 10.4464 15.5742 10.4634L15.619 10.374ZM14.3739 10.2006V10.3006C14.4291 10.3006 14.4739 10.2558 14.4739 10.2006H14.3739ZM9.62684 10.2006H9.52684C9.52684 10.2558 9.57161 10.3006 9.62684 10.3006V10.2006ZM15.2818 15.5316L15.3818 15.5316V15.5316H15.2818ZM8.56309 2.35272C8.71217 2.1056 9.03336 2.02613 9.28047 2.17521L9.38379 2.00396C9.04209 1.79782 8.59798 1.90771 8.39184 2.24941L8.56309 2.35272ZM8.7406 3.0701C8.49349 2.92102 8.41401 2.59984 8.56309 2.35272L8.39184 2.24941C8.1857 2.5911 8.29559 3.03521 8.63729 3.24135L8.7406 3.0701ZM9.00922 3.23215L8.7406 3.0701L8.63729 3.24135L8.90591 3.4034L9.00922 3.23215ZM2.90273 12C2.90273 8.03023 5.44505 4.65475 8.99064 3.41215L8.92449 3.2234C5.30124 4.49322 2.70273 7.94264 2.70273 12H2.90273ZM10.4563 20.9671C6.1672 20.2335 2.90273 16.4984 2.90273 12H2.70273C2.70273 16.5975 6.03907 20.4145 10.4226 21.1642L10.4563 20.9671ZM11.0595 20.5401C11.0108 20.8245 10.7408 21.0157 10.4563 20.9671L10.4226 21.1642C10.816 21.2315 11.1894 20.9671 11.2566 20.5738L11.0595 20.5401ZM10.6325 19.9369C10.917 19.9856 11.1081 20.2556 11.0595 20.5401L11.2566 20.5738C11.3239 20.1804 11.0596 19.807 10.6662 19.7398L10.6325 19.9369ZM3.94786 12C3.94786 15.9806 6.83685 19.2877 10.6325 19.9369L10.6662 19.7398C6.96503 19.1068 4.14786 15.8815 4.14786 12H3.94786ZM9.24523 4.43098C6.15501 5.55607 3.94786 8.52072 3.94786 12H4.14786C4.14786 8.60745 6.29991 5.71616 9.31365 4.61892L9.24523 4.43098ZM9.20981 4.85228L9.36657 4.57404L9.19232 4.47587L9.03556 4.75411L9.20981 4.85228ZM9.40858 5.56406C9.15714 5.4224 9.06814 5.10372 9.20981 4.85228L9.03556 4.75411C8.83968 5.10178 8.96273 5.54243 9.31041 5.73831L9.40858 5.56406ZM10.1204 5.36528C9.9787 5.61673 9.66002 5.70572 9.40858 5.56406L9.31041 5.73831C9.65809 5.93419 10.0987 5.81113 10.2946 5.46345L10.1204 5.36528ZM10.9997 3.80452L10.1204 5.36528L10.2946 5.46345L11.1739 3.90269L10.9997 3.80452ZM10.8143 3.10057C11.0563 3.24653 11.1384 3.55835 10.9997 3.80452L11.1739 3.90269C11.3657 3.56231 11.2522 3.13114 10.9177 2.92932L10.8143 3.10057ZM9.28047 2.17521L10.8143 3.10057L10.9177 2.92932L9.38379 2.00396L9.28047 2.17521ZM12.9413 3.45992C12.9899 3.17545 13.26 2.98428 13.5445 3.03293L13.5782 2.8358C13.1848 2.76852 12.8114 3.03286 12.7442 3.42621L12.9413 3.45992ZM13.3683 4.0631C13.0838 4.01445 12.8926 3.7444 12.9413 3.45992L12.7442 3.42621C12.6769 3.81956 12.9412 4.19296 13.3346 4.26024L13.3683 4.0631ZM20.0529 12C20.0529 8.0194 17.1639 4.71226 13.3683 4.0631L13.3346 4.26024C17.0358 4.89324 19.8529 8.11845 19.8529 12H20.0529ZM14.7556 19.569C17.8458 18.4439 20.0529 15.4793 20.0529 12H19.8529C19.8529 15.3926 17.7009 18.2839 14.6871 19.3811L14.7556 19.569ZM14.791 19.1477L14.6342 19.426L14.8085 19.5241L14.9652 19.2459L14.791 19.1477ZM14.5922 18.4359C14.8436 18.5776 14.9326 18.8963 14.791 19.1477L14.9652 19.2459C15.1611 18.8982 15.0381 18.4576 14.6904 18.2617L14.5922 18.4359ZM13.8804 18.6347C14.0221 18.3833 14.3408 18.2943 14.5922 18.4359L14.6904 18.2617C14.3427 18.0658 13.9021 18.1889 13.7062 18.5365L13.8804 18.6347ZM13.0011 20.1955L13.8804 18.6347L13.7062 18.5365L12.8268 20.0973L13.0011 20.1955ZM13.1864 20.8994C12.9445 20.7535 12.8624 20.4417 13.0011 20.1955L12.8268 20.0973C12.6351 20.4377 12.7486 20.8689 13.0831 21.0707L13.1864 20.8994ZM14.7203 21.8248L13.1864 20.8994L13.0831 21.0707L14.617 21.996L14.7203 21.8248ZM15.4377 21.6473C15.2886 21.8944 14.9674 21.9739 14.7203 21.8248L14.617 21.996C14.9587 22.2022 15.4028 22.0923 15.6089 21.7506L15.4377 21.6473ZM15.2602 20.9299C15.5073 21.079 15.5868 21.4002 15.4377 21.6473L15.6089 21.7506C15.8151 21.4089 15.7052 20.9648 15.3635 20.7587L15.2602 20.9299ZM14.9916 20.7679L15.2602 20.9299L15.3635 20.7587L15.0949 20.5966L14.9916 20.7679ZM21.098 12C21.098 15.9698 18.5558 19.3453 15.0102 20.5879L15.0763 20.7766C18.6996 19.5068 21.298 16.0574 21.298 12H21.098ZM13.5445 3.03293C17.8336 3.76649 21.098 7.50164 21.098 12H21.298C21.298 7.40253 17.9617 3.5855 13.5782 2.8358L13.5445 3.03293ZM8.48172 9.89886C8.48172 7.95556 10.0571 6.38022 12.0004 6.38022V6.18022C9.94661 6.18022 8.28172 7.84511 8.28172 9.89886H8.48172ZM8.48172 10.374V9.89886H8.28172V10.374H8.48172ZM7.57383 11.8441C7.57383 11.2401 7.92069 10.717 8.42653 10.4634L8.3369 10.2846C7.76603 10.5708 7.37383 11.1615 7.37383 11.8441H7.57383ZM7.57383 15.5316V11.8441H7.37383V15.5316H7.57383ZM9.11731 17.0751C8.26486 17.0751 7.57383 16.384 7.57383 15.5316H7.37383C7.37383 16.4945 8.15441 17.2751 9.11731 17.2751V17.0751ZM14.8834 17.0751H9.11731V17.2751H14.8834V17.0751ZM16.4269 15.5316C16.4269 16.384 15.7359 17.0751 14.8834 17.0751V17.2751C15.8463 17.2751 16.6269 16.4944 16.6269 15.5316L16.4269 15.5316ZM16.4269 11.8441V15.5316H16.6269V11.8441H16.4269ZM15.5742 10.4634C16.0801 10.717 16.4269 11.2401 16.4269 11.8441H16.6269C16.6269 11.1615 16.2347 10.5708 15.6638 10.2846L15.5742 10.4634ZM15.519 9.89886V10.374H15.719V9.89886H15.519ZM12.0004 6.38022C13.9437 6.38022 15.519 7.95556 15.519 9.89886H15.719C15.719 7.84511 14.0541 6.18022 12.0004 6.18022V6.38022ZM14.4739 10.2006V9.89886H14.2739V10.2006H14.4739ZM9.62684 10.3006H14.3739V10.1006H9.62684V10.3006ZM9.52684 9.89886V10.2006H9.72684V9.89886H9.52684ZM12.0004 7.42534C10.6343 7.42534 9.52684 8.53277 9.52684 9.89886H9.72684C9.72684 8.64323 10.7447 7.62534 12.0004 7.62534V7.42534ZM14.4739 9.89886C14.4739 8.53277 13.3664 7.42534 12.0004 7.42534V7.62534C13.256 7.62534 14.2739 8.64323 14.2739 9.89886H14.4739ZM9.11731 11.3457C8.84207 11.3457 8.61895 11.5688 8.61895 11.8441H8.81895C8.81895 11.6793 8.95253 11.5457 9.11731 11.5457V11.3457ZM14.8834 11.3457H9.11731V11.5457H14.8834V11.3457ZM15.3818 11.8441C15.3818 11.5688 15.1587 11.3457 14.8834 11.3457V11.5457C15.0482 11.5457 15.1818 11.6793 15.1818 11.8441H15.3818ZM15.3818 15.5316V11.8441H15.1818V15.5316H15.3818ZM14.8834 16.0299C15.1586 16.0299 15.3818 15.8068 15.3818 15.5316L15.1818 15.5316C15.1818 15.6964 15.0482 15.8299 14.8834 15.8299V16.0299ZM9.11731 16.0299H14.8834V15.8299H9.11731V16.0299ZM8.61895 15.5316C8.61895 15.8068 8.84207 16.0299 9.11731 16.0299V15.8299C8.95253 15.8299 8.81895 15.6964 8.81895 15.5316H8.61895ZM8.61895 11.8441V15.5316H8.81895V11.8441H8.61895ZM12.0004 12.7615C12.289 12.7615 12.5229 12.9954 12.5229 13.284H12.7229C12.7229 12.885 12.3994 12.5615 12.0004 12.5615V12.7615ZM11.4778 13.284C11.4778 12.9954 11.7118 12.7615 12.0004 12.7615V12.5615C11.6013 12.5615 11.2778 12.885 11.2778 13.284H11.4778ZM11.4778 14.0916V13.284H11.2778V14.0916H11.4778ZM12.0004 14.6141C11.7118 14.6141 11.4778 14.3802 11.4778 14.0916H11.2778C11.2778 14.4906 11.6013 14.8141 12.0004 14.8141V14.6141ZM12.5229 14.0916C12.5229 14.3802 12.289 14.6141 12.0004 14.6141V14.8141C12.3994 14.8141 12.7229 14.4906 12.7229 14.0916H12.5229ZM12.5229 13.284V14.0916H12.7229V13.284H12.5229Z" fill="#6B7280"/>
</svg>
