<svg width="24" height="24" viewBox="0 0 24 24" fill="none" xmlns="http://www.w3.org/2000/svg">
<g id="customer-support">
<g id="Vector">
<path fill-rule="evenodd" clip-rule="evenodd" d="M19 16.25C19.4142 16.25 19.75 16.5858 19.75 17V17.8C19.75 20.129 17.4585 21.75 15 21.75H13C12.5858 21.75 12.25 21.4142 12.25 21C12.25 20.5858 12.5858 20.25 13 20.25H15C16.9597 20.25 18.25 19.0056 18.25 17.8V17C18.25 16.5858 18.5858 16.25 19 16.25Z" fill="#6B7280"/>
<path fill-rule="evenodd" clip-rule="evenodd" d="M5.78909 8.41701C6.13144 5.8722 8.68585 3.75 12 3.75C15.5644 3.75 18.25 6.2048 18.25 9V9.75H19.75V9C19.75 5.16778 16.1676 2.25 12 2.25C8.05623 2.25 4.63646 4.86281 4.28053 8.39082C3.75127 8.61091 3.40284 9.03974 3.17189 9.32398C3.15139 9.34922 3.13181 9.37331 3.11312 9.39602L3.09463 9.41847C2.63863 9.97233 2.26984 10.4203 1.99611 10.8088C1.71345 11.2101 1.49932 11.5924 1.38098 12.0256C1.20634 12.6649 1.20634 13.3346 1.38098 13.9738C1.54407 14.5708 1.8724 15.0846 2.20005 15.5134C2.39841 15.773 2.63894 16.0517 2.85082 16.2973C2.96671 16.4316 3.07403 16.5559 3.1612 16.6618L3.18925 16.6959C3.53316 17.1147 4.11854 17.8276 5.16362 17.7431C5.52133 17.7141 5.86283 17.5578 6.22574 17.3918L6.30979 17.3534L6.37519 17.3237C6.64788 17.2 6.915 17.0789 7.12808 16.8936C7.75096 16.3519 7.75036 15.6369 7.75002 15.2235V10.7759C7.75036 10.3625 7.75096 9.64752 7.12808 9.10582C6.915 8.92051 6.64788 8.79939 6.37518 8.67575L6.30979 8.64605L6.22574 8.60765C6.07748 8.5398 5.93278 8.47358 5.78909 8.41701ZM4.97495 9.75H5.01919C5.02685 9.75033 5.03468 9.75082 5.0427 9.75146C5.1023 9.75629 5.1848 9.78191 5.68803 10.0111C6.07163 10.1858 6.11786 10.2152 6.14374 10.2377C6.18852 10.2766 6.20684 10.3088 6.22179 10.3693C6.24383 10.4586 6.25 10.5771 6.25 10.8042V15.1953C6.25 15.4223 6.24383 15.5409 6.22179 15.6301C6.20684 15.6906 6.18852 15.7228 6.14374 15.7617C6.11786 15.7843 6.07163 15.8136 5.68803 15.9883C5.1848 16.2175 5.1023 16.2431 5.0427 16.2479C4.92148 16.2578 4.84598 16.2311 4.75655 16.1675C4.63578 16.0816 4.51421 15.9452 4.31922 15.7084C4.18186 15.5415 4.05383 15.3939 3.93031 15.2515C3.74615 15.0392 3.57201 14.8384 3.39191 14.6027C3.1118 14.2361 2.9166 13.903 2.82795 13.5785C2.72402 13.198 2.72402 12.8014 2.82795 12.4209C2.8822 12.2223 2.99022 12.0023 3.2224 11.6727C3.45981 11.3356 3.7923 10.931 4.27114 10.3494C4.482 10.0933 4.60739 9.94331 4.74101 9.84335C4.82047 9.7839 4.88723 9.75411 4.97495 9.75Z" fill="#6B7280"/>
<path fill-rule="evenodd" clip-rule="evenodd" d="M19.2509 9.81331C19.1684 9.767 19.0648 9.74306 18.9573 9.75176C18.8977 9.75658 18.8152 9.7822 18.312 10.0114C18.0922 10.1115 17.9688 10.1691 17.8737 10.2381C17.8011 10.2907 17.7778 10.3275 17.7629 10.3713C17.7616 10.3766 17.7579 10.3963 17.7551 10.4425C17.7503 10.5198 17.75 10.6227 17.75 10.8044V15.1955C17.75 15.3773 17.7503 15.4802 17.7551 15.5575C17.7579 15.6037 17.7616 15.6234 17.7629 15.6287C17.7778 15.6725 17.8011 15.7093 17.8737 15.7619C17.9688 15.8309 18.0922 15.8885 18.312 15.9886C18.8152 16.2178 18.8977 16.2434 18.9573 16.2482C19.0648 16.2569 19.1684 16.233 19.2509 16.1867C19.2889 16.1654 19.3398 16.1228 19.6808 15.7087C19.8181 15.5418 19.9462 15.3942 20.0697 15.2518C20.2539 15.0394 20.428 14.8386 20.6081 14.603C20.8882 14.2364 21.0834 13.9033 21.172 13.5788C21.276 13.1983 21.276 12.8017 21.172 12.4212C21.1178 12.2226 21.0098 12.0026 20.7776 11.673C20.5402 11.3359 20.2077 10.9313 19.7289 10.3497C19.6603 10.2665 19.6154 10.2086 19.5762 10.158C19.5292 10.0973 19.4903 10.0472 19.4286 9.97656C19.3416 9.87689 19.2861 9.83304 19.2509 9.81331ZM17.7633 15.6304L17.7629 15.6287L17.7633 15.6304ZM17.7633 10.3696L17.7629 10.3713L17.7633 10.3696ZM18.8364 8.25664C19.2337 8.2245 19.636 8.30935 19.9851 8.50526C20.236 8.64608 20.4233 8.83505 20.5586 8.99009C20.6334 9.0757 20.7344 9.20388 20.808 9.29711C20.8419 9.34018 20.87 9.37579 20.8869 9.39631L20.9054 9.41876C21.3614 9.97263 21.7302 10.4205 22.0039 10.8091C22.2866 11.2104 22.5007 11.5927 22.619 12.0259C22.7937 12.6652 22.7937 13.3348 22.619 13.9741C22.4559 14.5711 22.1276 15.0849 21.7999 15.5137C21.6016 15.7733 21.3611 16.052 21.1492 16.2975C21.0333 16.4318 20.926 16.5562 20.8388 16.6621C20.8195 16.6855 20.8003 16.7089 20.7811 16.7323C20.5401 17.0265 20.3021 17.3168 19.9851 17.4947C19.636 17.6906 19.2337 17.7755 18.8364 17.7434C18.4787 17.7144 18.1372 17.5581 17.7743 17.3921C17.7464 17.3793 17.7184 17.3665 17.6902 17.3536C17.6699 17.3444 17.6481 17.3347 17.625 17.3243C17.2688 17.1652 16.5973 16.8652 16.3415 16.1081C16.2485 15.8327 16.2492 15.5384 16.2499 15.2645C16.2499 15.2413 16.25 15.2184 16.25 15.1955V10.8044C16.25 10.7816 16.2499 10.7587 16.2499 10.7355C16.2492 10.4616 16.2485 10.1672 16.3415 9.89191C16.5973 9.13482 17.2688 8.83478 17.625 8.67566C17.6481 8.66532 17.6699 8.65558 17.6902 8.64634C17.7184 8.63352 17.7464 8.6207 17.7743 8.60794C18.1372 8.44186 18.4787 8.28557 18.8364 8.25664Z" fill="#6B7280"/>
</g>
</g>
</svg>
