<svg width="42" height="42" viewBox="0 0 42 42" fill="none" xmlns="http://www.w3.org/2000/svg">
<path d="M38.0624 19.25V29.75C38.1652 30.6367 38.0662 31.5351 37.7727 32.378C37.4792 33.221 36.999 33.9867 36.3678 34.6179C35.7367 35.249 34.971 35.7293 34.128 36.0228C33.285 36.3162 32.3866 36.4153 31.4999 36.3125H10.4999C9.61329 36.4153 8.71487 36.3162 7.8719 36.0228C7.02893 35.7293 6.26323 35.249 5.63207 34.6179C5.00092 33.9867 4.52065 33.221 4.22719 32.378C3.93373 31.5351 3.83467 30.6367 3.93744 29.75V12.25C3.83467 11.3633 3.93373 10.4649 4.22719 9.62196C4.52065 8.77899 5.00092 8.01329 5.63207 7.38213C6.26323 6.75098 7.02893 6.2707 7.8719 5.97724C8.71487 5.68378 9.61329 5.58473 10.4999 5.6875H22.7499C23.098 5.6875 23.4319 5.82578 23.678 6.07192C23.9242 6.31806 24.0624 6.6519 24.0624 7C24.0624 7.3481 23.9242 7.68194 23.678 7.92808C23.4319 8.17422 23.098 8.3125 22.7499 8.3125H10.4999C7.74019 8.3125 6.56244 9.49025 6.56244 12.25V28.4375L11.0074 23.9925C11.3379 23.6646 11.7845 23.4807 12.2499 23.4807C12.7154 23.4807 13.162 23.6646 13.4924 23.9925L15.1374 25.6375C15.301 25.7978 15.5209 25.8876 15.7499 25.8876C15.979 25.8876 16.1989 25.7978 16.3624 25.6375L25.0074 16.9925C25.3379 16.6646 25.7845 16.4807 26.2499 16.4807C26.7154 16.4807 27.162 16.6646 27.4924 16.9925L35.4374 24.9375V19.25C35.4374 18.9019 35.5757 18.5681 35.8219 18.3219C36.068 18.0758 36.4018 17.9375 36.7499 17.9375C37.098 17.9375 37.4319 18.0758 37.678 18.3219C37.9242 18.5681 38.0624 18.9019 38.0624 19.25ZM13.9877 13.5625C13.4067 13.5641 12.85 13.7963 12.4401 14.208C12.0301 14.6197 11.8003 15.1773 11.8011 15.7583C11.8019 16.3393 12.0333 16.8963 12.4444 17.3068C12.8555 17.7174 13.4128 17.948 13.9938 17.948C14.5748 17.948 15.1321 17.7174 15.5432 17.3068C15.9544 16.8963 16.1858 16.3393 16.1866 15.7583C16.1874 15.1773 15.9576 14.6197 15.5476 14.208C15.1376 13.7963 14.581 13.5641 13.9999 13.5625H13.9877ZM29.7499 10.0625H31.9374V12.25C31.9374 12.5981 32.0757 12.9319 32.3219 13.1781C32.568 13.4242 32.9018 13.5625 33.2499 13.5625C33.598 13.5625 33.9319 13.4242 34.178 13.1781C34.4242 12.9319 34.5624 12.5981 34.5624 12.25V10.0625H36.7499C37.098 10.0625 37.4319 9.92422 37.678 9.67808C37.9242 9.43194 38.0624 9.0981 38.0624 8.75C38.0624 8.4019 37.9242 8.06806 37.678 7.82192C37.4319 7.57578 37.098 7.4375 36.7499 7.4375H34.5624V5.25C34.5624 4.9019 34.4242 4.56806 34.178 4.32192C33.9319 4.07578 33.598 3.9375 33.2499 3.9375C32.9018 3.9375 32.568 4.07578 32.3219 4.32192C32.0757 4.56806 31.9374 4.9019 31.9374 5.25V7.4375H29.7499C29.4018 7.4375 29.068 7.57578 28.8219 7.82192C28.5757 8.06806 28.4374 8.4019 28.4374 8.75C28.4374 9.0981 28.5757 9.43194 28.8219 9.67808C29.068 9.92422 29.4018 10.0625 29.7499 10.0625Z" fill="#6B7280"/>
</svg>
