<svg width="24" height="24" viewBox="0 0 24 24" fill="none" xmlns="http://www.w3.org/2000/svg">
<path fill-rule="evenodd" clip-rule="evenodd" d="M8.10654 14.884C7.0323 14.1031 6.09252 13.0833 5.37719 12.0384C7.21728 9.78904 9.19349 7.69219 12 7.69219C14.8065 7.69219 16.7828 9.78902 18.6228 12.0384C17.9075 13.0833 16.9677 14.1031 15.8935 14.884C14.6925 15.757 13.3579 16.3076 12 16.3076C10.6421 16.3076 9.30754 15.757 8.10654 14.884ZM12 6.46143C8.37323 6.46143 5.98685 9.32577 4.13693 11.6129C3.97116 11.8178 3.95432 12.1056 4.09505 12.3284C4.90567 13.6122 6.04046 14.9036 7.38285 15.8795C8.72404 16.8544 10.307 17.5383 12 17.5383C13.693 17.5383 15.276 16.8544 16.6172 15.8795C17.9596 14.9036 19.0943 13.6122 19.9049 12.3284C20.0457 12.1056 20.0288 11.8178 19.8631 11.6129C18.0132 9.32573 15.6268 6.46143 12 6.46143ZM10.9739 11.9999C10.9739 11.4335 11.4331 10.9743 11.9996 10.9743C12.566 10.9743 13.0252 11.4335 13.0252 11.9999C13.0252 12.5664 12.566 13.0256 11.9996 13.0256C11.4331 13.0256 10.9739 12.5664 10.9739 11.9999ZM11.9996 9.74353C10.7534 9.74353 9.74316 10.7538 9.74316 11.9999C9.74316 13.2461 10.7534 14.2563 11.9996 14.2563C13.2458 14.2563 14.256 13.2461 14.256 11.9999C14.256 10.7538 13.2458 9.74353 11.9996 9.74353Z" fill="#6B7280"/>
</svg>
