<svg width="24" height="24" viewBox="0 0 24 24" fill="none" xmlns="http://www.w3.org/2000/svg">
<path fill-rule="evenodd" clip-rule="evenodd" d="M5.05053 4.18024C4.8102 3.93992 4.42056 3.93992 4.18024 4.18024C3.93992 4.42056 3.93992 4.8102 4.18024 5.05053L7.3503 8.22058C6.10836 9.20571 5.06187 10.4695 4.13693 11.613C3.97116 11.818 3.95432 12.1057 4.09505 12.3286C4.90568 13.6124 6.04046 14.9038 7.38286 15.8796C8.72404 16.8546 10.307 17.5385 12 17.5385C13.2984 17.5385 14.5322 17.1359 15.6398 16.51L18.9495 19.8198C19.1898 20.0601 19.5794 20.0601 19.8198 19.8198C20.0601 19.5794 20.0601 19.1898 19.8198 18.9495L5.05053 4.18024ZM5.37712 12.0384C6.25746 10.9612 7.17835 9.90369 8.22702 9.09731L10.0293 10.8996C9.8472 11.2252 9.74316 11.6008 9.74316 11.9999C9.74316 13.2461 10.7534 14.2563 11.9996 14.2563C12.3987 14.2563 12.7743 14.1523 13.0999 13.9702L14.7311 15.6014C13.8546 16.0482 12.9329 16.3077 12 16.3077C10.6421 16.3077 9.30754 15.7571 8.10654 14.8841C7.03226 14.1032 6.09245 13.0833 5.37712 12.0384ZM12.1451 13.0154L10.9841 11.8544C10.9774 11.9019 10.9739 11.9505 10.9739 11.9999C10.9739 12.5664 11.4331 13.0256 11.9996 13.0256C12.049 13.0256 12.0976 13.0221 12.1451 13.0154ZM12 6.46154C11.6601 6.46154 11.3846 6.73706 11.3846 7.07692C11.3846 7.41679 11.6601 7.69231 12 7.69231C14.8065 7.69231 16.7828 9.78913 18.6228 12.0385C18.4376 12.3091 18.2369 12.5785 18.0223 12.843C17.8081 13.1069 17.8484 13.4944 18.1123 13.7086C18.3762 13.9228 18.7638 13.8825 18.9779 13.6186C19.32 13.197 19.6306 12.763 19.9049 12.3286C20.0457 12.1057 20.0288 11.8179 19.8631 11.613C18.0132 9.32584 15.6268 6.46154 12 6.46154Z" fill="#262626"/>
</svg>
