<svg width="24" height="24" viewBox="0 0 24 24" fill="none" xmlns="http://www.w3.org/2000/svg">
<path fill-rule="evenodd" clip-rule="evenodd" d="M20.8117 3.80082C20.8682 3.83371 20.9152 3.88084 20.9479 3.93752C20.9817 3.99403 21 4.05843 21.001 4.12426C21.002 4.19009 20.9856 4.25502 20.9536 4.31252L17.3179 10.8563C18.0972 11.8529 18.5807 13.0484 18.7133 14.3065C18.8459 15.5646 18.6222 16.8347 18.0679 17.9718C17.5135 19.109 16.6507 20.0675 15.5779 20.738C14.5052 21.4085 13.2655 21.764 12.0004 21.764C10.7354 21.764 9.49574 21.4085 8.42295 20.738C7.35016 20.0675 6.48739 19.109 5.93303 17.9718C5.37866 16.8347 5.15503 15.5646 5.28762 14.3065C5.42022 13.0484 5.9037 11.8529 6.68295 10.8563L3.04732 4.31252C3.01426 4.25526 2.99693 4.19028 2.99707 4.12417C2.99722 4.05806 3.01484 3.99316 3.04815 3.93605C3.08147 3.87894 3.12929 3.83166 3.18676 3.79898C3.24424 3.76631 3.30933 3.74942 3.37545 3.75002H10.1254C10.1848 3.75008 10.2432 3.76421 10.2961 3.79127C10.3489 3.81832 10.3945 3.85752 10.4292 3.90564L12.1373 6.27189L13.5548 3.93752C13.5874 3.88111 13.6341 3.83416 13.6903 3.80128C13.7465 3.7684 13.8103 3.75074 13.8754 3.75002H20.6254C20.6909 3.75041 20.7551 3.76792 20.8117 3.80082ZM9.93795 4.50002H4.01295L7.20795 10.2525C8.2007 9.24831 9.48339 8.58074 10.8754 8.34376L11.7192 6.96751L9.93795 4.50002ZM8.66702 19.9888C9.65372 20.6481 10.8138 21 12.0004 21C13.5917 21 15.1179 20.3679 16.2431 19.2427C17.3683 18.1174 18.0004 16.5913 18.0004 15C18.0004 13.8133 17.6486 12.6533 16.9893 11.6666C16.33 10.6799 15.3929 9.91086 14.2965 9.45674C13.2002 9.00261 11.9938 8.88379 10.8299 9.1153C9.66602 9.34681 8.59692 9.91826 7.7578 10.7574C6.91869 11.5965 6.34725 12.6656 6.11573 13.8295C5.88422 14.9934 6.00304 16.1998 6.45717 17.2961C6.91129 18.3925 7.68033 19.3295 8.66702 19.9888ZM14.5976 8.77039C15.4203 9.11416 16.1666 9.61795 16.7929 10.2525L19.9879 4.50002H14.0873L11.8129 8.25001H12.0004C12.8921 8.24975 13.7749 8.42663 14.5976 8.77039ZM13.4704 13.0332L15.4522 13.3219V13.3294C15.5724 13.3465 15.6853 13.397 15.7782 13.4751C15.8711 13.5532 15.9403 13.6558 15.9778 13.7712C16.0153 13.8867 16.0196 14.0103 15.9904 14.1281C15.9611 14.2459 15.8994 14.3531 15.8122 14.4375L14.3779 15.8288L14.7022 17.8013C14.7229 17.9208 14.7095 18.0438 14.6638 18.1561C14.6181 18.2685 14.5417 18.3658 14.4435 18.4369C14.3349 18.5174 14.2036 18.5614 14.0685 18.5625C13.9627 18.5626 13.8584 18.5369 13.7647 18.4875L11.9929 17.55L10.221 18.4875C10.1137 18.5415 9.99348 18.5649 9.87373 18.5549C9.75399 18.545 9.63931 18.5021 9.54235 18.4312C9.44539 18.3602 9.36991 18.2638 9.32424 18.1527C9.27856 18.0415 9.26446 17.9199 9.28349 17.8013L9.62287 15.8363L8.18849 14.4375C8.0991 14.3534 8.03541 14.2456 8.00483 14.1267C7.97425 14.0079 7.97802 13.8827 8.01572 13.7659C8.05342 13.6491 8.1235 13.5453 8.2178 13.4667C8.31211 13.3882 8.42678 13.3379 8.54849 13.3219L10.5304 13.0332L11.4172 11.2369C11.471 11.1282 11.5541 11.0367 11.6572 10.9728C11.7602 10.9088 11.8791 10.8749 12.0004 10.8749C12.1217 10.8749 12.2405 10.9088 12.3436 10.9728C12.4466 11.0367 12.5297 11.1282 12.5835 11.2369L13.4704 13.0332ZM13.6179 15.5822C13.6365 15.5244 13.6689 15.472 13.7122 15.4294L15.1429 14.0344L13.1666 13.7475C13.1062 13.7388 13.0488 13.7155 12.9995 13.6795C12.9502 13.6436 12.9103 13.5961 12.8835 13.5413L12.0004 11.7507L11.1172 13.5413C11.0904 13.5961 11.0506 13.6436 11.0012 13.6795C10.9519 13.7155 10.8945 13.7388 10.8341 13.7475L8.85787 14.0344L10.2885 15.4294C10.3319 15.472 10.3642 15.5244 10.3828 15.5822C10.4015 15.64 10.4058 15.7015 10.3954 15.7613L10.0579 17.73L11.826 16.7925C11.8798 16.7643 11.9396 16.7495 12.0004 16.7495C12.0611 16.7495 12.121 16.7643 12.1747 16.7925L13.9429 17.73L13.6054 15.7613C13.595 15.7015 13.5993 15.64 13.6179 15.5822Z" fill="#6B7280"/>
<path d="M20.9479 3.93752L20.7314 4.06252L20.7333 4.06577L20.9479 3.93752ZM20.8117 3.80082L20.9373 3.58469L20.8117 3.80082ZM21.001 4.12426L20.751 4.12801V4.12801L21.001 4.12426ZM20.9536 4.31252L20.7352 4.19076L20.735 4.1911L20.9536 4.31252ZM17.3179 10.8563L17.0994 10.7348L17.0189 10.8797L17.121 11.0103L17.3179 10.8563ZM18.0679 17.9718L17.8431 17.8623L18.0679 17.9718ZM8.42295 20.738L8.55545 20.526L8.42295 20.738ZM5.93303 17.9718L5.70831 18.0814L5.93303 17.9718ZM6.68295 10.8563L6.87989 11.0103L6.98196 10.8797L6.90148 10.7348L6.68295 10.8563ZM3.04732 4.31252L3.26589 4.19108L3.26382 4.1875L3.04732 4.31252ZM2.99707 4.12417L2.74707 4.12361L2.74707 4.12362L2.99707 4.12417ZM3.04815 3.93605L2.83221 3.81008L2.83221 3.81008L3.04815 3.93605ZM3.37545 3.75002L3.3732 4.00002H3.37545V3.75002ZM10.1254 3.75002L10.1257 3.50002H10.1254V3.75002ZM10.2961 3.79127L10.41 3.56877L10.41 3.56877L10.2961 3.79127ZM10.4292 3.90564L10.2264 4.05189L10.2265 4.05197L10.4292 3.90564ZM12.1373 6.27189L11.9346 6.41822L12.1553 6.72394L12.351 6.40165L12.1373 6.27189ZM13.5548 3.93752L13.7686 4.06731L13.7713 4.0625L13.5548 3.93752ZM13.6903 3.80128L13.5641 3.58547L13.5641 3.58548L13.6903 3.80128ZM13.8754 3.75002V3.5L13.8727 3.50003L13.8754 3.75002ZM20.6254 3.75002L20.627 3.50002H20.6254V3.75002ZM4.01295 4.50002V4.25002H3.58812L3.79439 4.6214L4.01295 4.50002ZM9.93795 4.50002L10.1406 4.35369L10.0658 4.25002H9.93795V4.50002ZM7.20795 10.2525L6.98939 10.3739L7.1513 10.6654L7.38573 10.4283L7.20795 10.2525ZM10.8754 8.34376L10.9174 8.59022L11.0293 8.57118L11.0886 8.47443L10.8754 8.34376ZM11.7192 6.96751L11.9323 7.09818L12.0194 6.95621L11.9219 6.82119L11.7192 6.96751ZM8.66702 19.9888L8.52813 20.1967L8.66702 19.9888ZM16.9893 11.6666L16.7814 11.8055L16.9893 11.6666ZM10.8299 9.1153L10.8787 9.3605L10.8299 9.1153ZM7.7578 10.7574L7.58103 10.5806V10.5806L7.7578 10.7574ZM6.11573 13.8295L5.87054 13.7807L6.11573 13.8295ZM6.45717 17.2961L6.2262 17.3918L6.45717 17.2961ZM16.7929 10.2525L16.615 10.4281L16.8495 10.6656L17.0115 10.3739L16.7929 10.2525ZM14.5976 8.77039L14.5012 9.00107L14.5976 8.77039ZM19.9879 4.50002L20.2065 4.6214L20.4128 4.25002H19.9879V4.50002ZM14.0873 4.50002V4.25002H13.9466L13.8736 4.37037L14.0873 4.50002ZM11.8129 8.25001L11.5992 8.12037L11.3689 8.50001H11.8129V8.25001ZM12.0004 8.25001V8.50001H12.0005L12.0004 8.25001ZM15.4522 13.3219H15.7022V13.1057L15.4883 13.0745L15.4522 13.3219ZM13.4704 13.0332L13.2462 13.1439L13.3044 13.2616L13.4343 13.2806L13.4704 13.0332ZM15.4522 13.3294H15.2022V13.5463L15.417 13.5769L15.4522 13.3294ZM15.9778 13.7712L15.74 13.8485V13.8485L15.9778 13.7712ZM15.9904 14.1281L16.233 14.1883V14.1883L15.9904 14.1281ZM15.8122 14.4375L15.6383 14.258L15.6382 14.2581L15.8122 14.4375ZM14.3779 15.8288L14.2038 15.6493L14.11 15.7404L14.1312 15.8694L14.3779 15.8288ZM14.7022 17.8013L14.4556 17.8419L14.4559 17.8438L14.7022 17.8013ZM14.6638 18.1561L14.4323 18.0619L14.6638 18.1561ZM14.4435 18.4369L14.2968 18.2344L14.2947 18.2361L14.4435 18.4369ZM14.0685 18.5625L14.0687 18.8126L14.0707 18.8125L14.0685 18.5625ZM13.7647 18.4875L13.6478 18.7085L13.6482 18.7087L13.7647 18.4875ZM11.9929 17.55L12.1098 17.3291L11.9929 17.2672L11.876 17.3291L11.9929 17.55ZM10.221 18.4875L10.3334 18.7109L10.3379 18.7085L10.221 18.4875ZM9.87373 18.5549L9.85303 18.8041H9.85303L9.87373 18.5549ZM9.32424 18.1527L9.093 18.2477L9.093 18.2477L9.32424 18.1527ZM9.28349 17.8013L9.03712 17.7587L9.03665 17.7617L9.28349 17.8013ZM9.62287 15.8363L9.86922 15.8788L9.89162 15.7492L9.79741 15.6573L9.62287 15.8363ZM8.18849 14.4375L8.36306 14.2585L8.35984 14.2555L8.18849 14.4375ZM8.01572 13.7659L8.25364 13.8427L8.01572 13.7659ZM8.54849 13.3219L8.58111 13.5698L8.58454 13.5693L8.54849 13.3219ZM10.5304 13.0332L10.5664 13.2806L10.6964 13.2616L10.7545 13.1439L10.5304 13.0332ZM11.4172 11.2369L11.1932 11.126L11.1931 11.1262L11.4172 11.2369ZM12.5835 11.2369L12.8077 11.1262L12.8076 11.126L12.5835 11.2369ZM13.7122 15.4294L13.5377 15.2504L13.5372 15.251L13.7122 15.4294ZM15.1429 14.0344L15.3174 14.2134L15.6801 13.8598L15.1788 13.787L15.1429 14.0344ZM13.1666 13.7475L13.2025 13.5001L13.2024 13.5001L13.1666 13.7475ZM12.8835 13.5413L13.108 13.4314L13.1077 13.4307L12.8835 13.5413ZM12.0004 11.7507L12.2246 11.6401L12.0004 11.1855L11.7762 11.6401L12.0004 11.7507ZM11.1172 13.5413L10.893 13.4307L10.8927 13.4314L11.1172 13.5413ZM11.0012 13.6795L11.1484 13.8816L11.1484 13.8816L11.0012 13.6795ZM10.8341 13.7475L10.7983 13.5001L10.7982 13.5001L10.8341 13.7475ZM8.85787 14.0344L8.82196 13.787L8.32067 13.8598L8.68334 14.2134L8.85787 14.0344ZM10.2885 15.4294L10.4636 15.251L10.463 15.2504L10.2885 15.4294ZM10.3954 15.7613L10.1491 15.7185L10.149 15.7191L10.3954 15.7613ZM10.0579 17.73L9.81146 17.6878L9.7255 18.1892L10.175 17.9509L10.0579 17.73ZM11.826 16.7925L11.7097 16.5712L11.7089 16.5717L11.826 16.7925ZM12.1747 16.7925L12.2919 16.5717L12.291 16.5712L12.1747 16.7925ZM13.9429 17.73L13.8258 17.9509L14.2752 18.1892L14.1893 17.6878L13.9429 17.73ZM13.6054 15.7613L13.8518 15.7191L13.8517 15.7185L13.6054 15.7613ZM21.1645 3.81252C21.1099 3.71806 21.0316 3.63951 20.9373 3.58469L20.686 4.01694C20.7049 4.02791 20.7205 4.04362 20.7314 4.06251L21.1645 3.81252ZM21.251 4.12052C21.2493 4.0108 21.2188 3.90345 21.1625 3.80927L20.7333 4.06577C20.7446 4.0846 20.7507 4.10607 20.751 4.12801L21.251 4.12052ZM21.1719 4.43427C21.2254 4.33843 21.2526 4.23022 21.251 4.12051L20.751 4.12801C20.7514 4.14996 20.7459 4.1716 20.7352 4.19076L21.1719 4.43427ZM17.5365 10.9777L21.1721 4.43393L20.735 4.1911L17.0994 10.7348L17.5365 10.9777ZM18.9619 14.2803C18.8244 12.9756 18.323 11.7358 17.5149 10.7023L17.121 11.0103C17.8714 11.9699 18.337 13.1212 18.4646 14.3327L18.9619 14.2803ZM18.2926 18.0814C18.8675 16.9021 19.0994 15.585 18.9619 14.2803L18.4646 14.3327C18.5923 15.5442 18.377 16.7673 17.8431 17.8623L18.2926 18.0814ZM15.7104 20.95C16.823 20.2547 17.7177 19.2607 18.2926 18.0814L17.8431 17.8623C17.3093 18.9573 16.4785 19.8803 15.4454 20.526L15.7104 20.95ZM12.0004 22.014C13.3124 22.014 14.5979 21.6453 15.7104 20.95L15.4454 20.526C14.4124 21.1716 13.2187 21.514 12.0004 21.514V22.014ZM8.29045 20.95C9.40297 21.6453 10.6885 22.014 12.0004 22.014V21.514C10.7822 21.514 9.5885 21.1716 8.55545 20.526L8.29045 20.95ZM5.70831 18.0814C6.2832 19.2607 7.17793 20.2547 8.29045 20.95L8.55545 20.526C7.52239 19.8803 6.69158 18.9573 6.15775 17.8623L5.70831 18.0814ZM5.039 14.2803C4.90149 15.585 5.13341 16.9021 5.70831 18.0814L6.15775 17.8623C5.62392 16.7673 5.40856 15.5442 5.53625 14.3327L5.039 14.2803ZM6.486 10.7023C5.6779 11.7358 5.17651 12.9756 5.039 14.2803L5.53625 14.3327C5.66393 13.1212 6.12951 11.9699 6.87989 11.0103L6.486 10.7023ZM2.82878 4.43393L6.46441 10.9777L6.90148 10.7348L3.26586 4.1911L2.82878 4.43393ZM2.74707 4.12362C2.74683 4.23381 2.77572 4.3421 2.83082 4.43753L3.26382 4.1875C3.2528 4.16842 3.24702 4.14676 3.24707 4.12472L2.74707 4.12362ZM2.83221 3.81008C2.77669 3.90526 2.74732 4.01343 2.74707 4.12361L3.24707 4.12473C3.24712 4.10269 3.25299 4.08105 3.2641 4.06202L2.83221 3.81008ZM3.06322 3.58164C2.96743 3.63609 2.88773 3.7149 2.83221 3.81008L3.2641 4.06202C3.2752 4.04298 3.29114 4.02722 3.3103 4.01633L3.06322 3.58164ZM3.37769 3.50003C3.26751 3.49903 3.15902 3.52719 3.06322 3.58164L3.3103 4.01633C3.32946 4.00544 3.35116 3.99981 3.3732 4.00001L3.37769 3.50003ZM10.1254 3.50002H3.37545V4.00002H10.1254V3.50002ZM10.41 3.56877C10.322 3.52368 10.2246 3.50012 10.1257 3.50002L10.1252 4.00002C10.145 4.00004 10.1645 4.00475 10.1821 4.01377L10.41 3.56877ZM10.632 3.75939C10.5741 3.67919 10.4981 3.61386 10.41 3.56877L10.1821 4.01377C10.1997 4.02278 10.2149 4.03585 10.2264 4.05189L10.632 3.75939ZM12.34 6.12556L10.6319 3.75931L10.2265 4.05197L11.9346 6.41822L12.34 6.12556ZM13.3411 3.80776L11.9236 6.14213L12.351 6.40165L13.7685 4.06727L13.3411 3.80776ZM13.5641 3.58548C13.4704 3.64027 13.3926 3.71852 13.3383 3.81253L13.7713 4.0625C13.7822 4.0437 13.7978 4.02805 13.8165 4.01709L13.5641 3.58548ZM13.8727 3.50003C13.7641 3.50123 13.6578 3.53068 13.5641 3.58547L13.8165 4.01709C13.8352 4.00613 13.8565 4.00024 13.8782 4L13.8727 3.50003ZM20.6254 3.50002H13.8754V4.00002H20.6254V3.50002ZM20.9373 3.58469C20.843 3.52987 20.736 3.50068 20.627 3.50002L20.6239 4.00001C20.6458 4.00014 20.6672 4.00598 20.686 4.01694L20.9373 3.58469ZM4.01295 4.75002H9.93795V4.25002H4.01295V4.75002ZM7.4265 10.1311L4.2315 4.37863L3.79439 4.6214L6.98939 10.3739L7.4265 10.1311ZM10.8335 8.09731C9.38987 8.34306 8.05968 9.03536 7.03016 10.0768L7.38573 10.4283C8.34172 9.46126 9.5769 8.81841 10.9174 8.59022L10.8335 8.09731ZM11.5061 6.83685L10.6623 8.2131L11.0886 8.47443L11.9323 7.09818L11.5061 6.83685ZM9.73524 4.64634L11.5165 7.11384L11.9219 6.82119L10.1406 4.35369L9.73524 4.64634ZM12.0004 20.75C10.8632 20.75 9.7515 20.4128 8.80592 19.781L8.52813 20.1967C9.55594 20.8835 10.7643 21.25 12.0004 21.25V20.75ZM16.0663 19.0659C14.988 20.1442 13.5254 20.75 12.0004 20.75V21.25C13.658 21.25 15.2478 20.5915 16.4199 19.4194L16.0663 19.0659ZM17.7504 15C17.7504 16.525 17.1446 17.9875 16.0663 19.0659L16.4199 19.4194C17.592 18.2473 18.2504 16.6576 18.2504 15H17.7504ZM16.7814 11.8055C17.4132 12.7511 17.7504 13.8628 17.7504 15H18.2504C18.2504 13.7639 17.8839 12.5555 17.1971 11.5277L16.7814 11.8055ZM14.2009 9.68771C15.2516 10.1229 16.1496 10.8599 16.7814 11.8055L17.1971 11.5277C16.5104 10.4999 15.5343 9.69882 14.3922 9.22577L14.2009 9.68771ZM10.8787 9.3605C11.9941 9.13863 13.1502 9.2525 14.2009 9.68771L14.3922 9.22577C13.2502 8.75272 11.9935 8.62895 10.7811 8.87011L10.8787 9.3605ZM7.93458 10.9342C8.73873 10.13 9.76329 9.58236 10.8787 9.3605L10.7811 8.87011C9.56875 9.11126 8.45511 9.70652 7.58103 10.5806L7.93458 10.9342ZM6.36093 13.8782C6.5828 12.7629 7.13043 11.7383 7.93458 10.9342L7.58103 10.5806C6.70695 11.4547 6.1117 12.5683 5.87054 13.7807L6.36093 13.8782ZM6.68814 17.2004C6.25293 16.1498 6.13907 14.9936 6.36093 13.8782L5.87054 13.7807C5.62938 14.9931 5.75315 16.2497 6.2262 17.3918L6.68814 17.2004ZM8.80592 19.781C7.86033 19.1491 7.12334 18.2511 6.68814 17.2004L6.2262 17.3918C6.69925 18.5338 7.50032 19.5099 8.52813 20.1967L8.80592 19.781ZM16.9709 10.0769C16.3212 9.41876 15.5473 8.89625 14.694 8.53972L14.5012 9.00107C15.2934 9.33206 16.0119 9.81714 16.615 10.4281L16.9709 10.0769ZM19.7694 4.37863L16.5744 10.1311L17.0115 10.3739L20.2065 4.6214L19.7694 4.37863ZM14.0873 4.75002H19.9879V4.25002H14.0873V4.75002ZM12.0267 8.37966L14.3011 4.62966L13.8736 4.37037L11.5992 8.12037L12.0267 8.37966ZM12.0004 8.00001H11.8129V8.50001H12.0004V8.00001ZM14.694 8.53972C13.8407 8.18319 12.9251 7.99974 12.0004 8.00001L12.0005 8.50001C12.8591 8.49976 13.7091 8.67007 14.5012 9.00107L14.694 8.53972ZM15.4883 13.0745L13.5064 12.7858L13.4343 13.2806L15.4162 13.5693L15.4883 13.0745ZM15.7022 13.3294V13.3219H15.2022V13.3294H15.7022ZM15.9391 13.2838C15.8104 13.1756 15.654 13.1056 15.4875 13.0819L15.417 13.5769C15.4908 13.5874 15.5603 13.6185 15.6174 13.6665L15.9391 13.2838ZM16.2155 13.694C16.1636 13.5341 16.0678 13.392 15.9391 13.2838L15.6174 13.6665C15.6744 13.7145 15.7169 13.7775 15.74 13.8485L16.2155 13.694ZM16.233 14.1883C16.2735 14.0252 16.2675 13.8539 16.2155 13.694L15.74 13.8485C15.763 13.9194 15.7657 13.9954 15.7477 14.0678L16.233 14.1883ZM15.9862 14.6171C16.107 14.5001 16.1925 14.3515 16.233 14.1883L15.7477 14.0678C15.7298 14.1402 15.6918 14.2061 15.6383 14.258L15.9862 14.6171ZM14.5519 16.0083L15.9863 14.617L15.6382 14.2581L14.2038 15.6493L14.5519 16.0083ZM14.9489 17.7607L14.6246 15.7882L14.1312 15.8694L14.4556 17.8419L14.9489 17.7607ZM14.8953 18.2504C14.9587 18.0947 14.9772 17.9244 14.9486 17.7588L14.4559 17.8438C14.4685 17.9173 14.4604 17.9928 14.4323 18.0619L14.8953 18.2504ZM14.5901 18.6394C14.7263 18.5408 14.832 18.406 14.8953 18.2504L14.4323 18.0619C14.4041 18.1309 14.3572 18.1907 14.2968 18.2345L14.5901 18.6394ZM14.0707 18.8125C14.2587 18.8109 14.4413 18.7497 14.5923 18.6378L14.2947 18.2361C14.2285 18.285 14.1486 18.3118 14.0663 18.3126L14.0707 18.8125ZM13.6482 18.7087C13.7778 18.777 13.9222 18.8127 14.0687 18.8125L14.0683 18.3125C14.0031 18.3126 13.9389 18.2967 13.8813 18.2664L13.6482 18.7087ZM11.876 17.771L13.6478 18.7085L13.8817 18.2666L12.1098 17.3291L11.876 17.771ZM10.3379 18.7085L12.1098 17.771L11.876 17.3291L10.1041 18.2666L10.3379 18.7085ZM9.85303 18.8041C10.0187 18.8178 10.1849 18.7856 10.3333 18.7109L10.1086 18.2642C10.0424 18.2975 9.9683 18.3119 9.89443 18.3058L9.85303 18.8041ZM9.39468 18.6329C9.52879 18.7311 9.68741 18.7903 9.85303 18.8041L9.89443 18.3058C9.82057 18.2996 9.74983 18.2732 9.69001 18.2294L9.39468 18.6329ZM9.093 18.2477C9.15618 18.4014 9.26057 18.5347 9.39468 18.6329L9.69001 18.2294C9.63021 18.1857 9.58365 18.1262 9.55547 18.0576L9.093 18.2477ZM9.03665 17.7617C9.01033 17.9258 9.02983 18.094 9.093 18.2477L9.55547 18.0576C9.52729 17.9891 9.5186 17.9141 9.53034 17.8409L9.03665 17.7617ZM9.37652 15.7938L9.03714 17.7588L9.52985 17.8438L9.86922 15.8788L9.37652 15.7938ZM8.01395 14.6165L9.44833 16.0153L9.79741 15.6573L8.36303 14.2586L8.01395 14.6165ZM7.76271 14.189C7.80508 14.3537 7.89331 14.503 8.01715 14.6196L8.35984 14.2555C8.30489 14.2038 8.26575 14.1375 8.24695 14.0645L7.76271 14.189ZM7.7778 13.6891C7.72558 13.851 7.72034 14.0243 7.76271 14.189L8.24695 14.0645C8.22815 13.9914 8.23047 13.9145 8.25364 13.8427L7.7778 13.6891ZM8.05776 13.2747C7.92711 13.3836 7.83003 13.5273 7.7778 13.6891L8.25364 13.8427C8.27682 13.7709 8.31988 13.7071 8.37785 13.6588L8.05776 13.2747ZM8.51588 13.0741C8.34727 13.0962 8.18841 13.1658 8.05776 13.2747L8.37785 13.6588C8.43582 13.6105 8.5063 13.5796 8.58111 13.5698L8.51588 13.0741ZM10.4943 12.7858L8.51245 13.0745L8.58454 13.5693L10.5664 13.2806L10.4943 12.7858ZM11.1931 11.1262L10.3062 12.9225L10.7545 13.1439L11.6414 11.3476L11.1931 11.1262ZM11.5253 10.7604C11.3827 10.8489 11.2676 10.9756 11.1932 11.126L11.6413 11.3478C11.6744 11.2809 11.7256 11.2245 11.7891 11.1851L11.5253 10.7604ZM12.0004 10.6249C11.8325 10.6249 11.6679 10.6718 11.5253 10.7604L11.7891 11.1851C11.8525 11.1458 11.9257 11.1249 12.0004 11.1249V10.6249ZM12.4754 10.7604C12.3328 10.6718 12.1683 10.6249 12.0004 10.6249V11.1249C12.0751 11.1249 12.1482 11.1458 12.2117 11.1851L12.4754 10.7604ZM12.8076 11.126C12.7331 10.9756 12.6181 10.8489 12.4754 10.7604L12.2117 11.1851C12.2751 11.2245 12.3263 11.2809 12.3594 11.3478L12.8076 11.126ZM13.6945 12.9225L12.8077 11.1262L12.3593 11.3476L13.2462 13.1439L13.6945 12.9225ZM13.5372 15.251C13.4649 15.3218 13.411 15.4092 13.3799 15.5056L13.8559 15.6588C13.8621 15.6395 13.8729 15.6221 13.8873 15.6079L13.5372 15.251ZM14.9683 13.8554L13.5377 15.2504L13.8868 15.6084L15.3174 14.2134L14.9683 13.8554ZM13.1307 13.995L15.107 14.2818L15.1788 13.787L13.2025 13.5001L13.1307 13.995ZM12.8523 13.8816C12.9345 13.9415 13.0301 13.9804 13.1308 13.995L13.2024 13.5001C13.1823 13.4972 13.1631 13.4894 13.1467 13.4774L12.8523 13.8816ZM12.659 13.6512C12.7037 13.7426 12.7701 13.8217 12.8523 13.8816L13.1467 13.4774C13.1303 13.4655 13.117 13.4496 13.108 13.4314L12.659 13.6512ZM11.7762 11.8613L12.6593 13.6519L13.1077 13.4307L12.2246 11.6401L11.7762 11.8613ZM11.3415 13.6519L12.2246 11.8613L11.7762 11.6401L10.893 13.4307L11.3415 13.6519ZM11.1484 13.8816C11.2307 13.8217 11.297 13.7426 11.3418 13.6512L10.8927 13.4314C10.8838 13.4496 10.8705 13.4655 10.854 13.4774L11.1484 13.8816ZM10.8699 13.995C10.9706 13.9804 11.0662 13.9415 11.1484 13.8816L10.854 13.4774C10.8376 13.4894 10.8185 13.4972 10.7983 13.5001L10.8699 13.995ZM8.89378 14.2818L10.87 13.995L10.7982 13.5001L8.82196 13.787L8.89378 14.2818ZM10.463 15.2504L9.0324 13.8554L8.68334 14.2134L10.114 15.6084L10.463 15.2504ZM10.6208 15.5056C10.5898 15.4092 10.5358 15.3218 10.4636 15.251L10.1134 15.6079C10.1279 15.6221 10.1387 15.6395 10.1449 15.6588L10.6208 15.5056ZM10.6417 15.8041C10.659 15.7043 10.6518 15.6019 10.6208 15.5056L10.1449 15.6588C10.1511 15.6781 10.1525 15.6986 10.1491 15.7185L10.6417 15.8041ZM10.3043 17.7723L10.6418 15.8035L10.149 15.7191L9.81146 17.6878L10.3043 17.7723ZM11.7089 16.5717L9.94076 17.5092L10.175 17.9509L11.9431 17.0134L11.7089 16.5717ZM12.0004 16.4995C11.8991 16.4995 11.7994 16.5241 11.7097 16.5712L11.9422 17.0139C11.9602 17.0045 11.9801 16.9995 12.0004 16.9995V16.4995ZM12.291 16.5712C12.2014 16.5241 12.1016 16.4995 12.0004 16.4995V16.9995C12.0206 16.9995 12.0406 17.0045 12.0585 17.0139L12.291 16.5712ZM14.06 17.5092L12.2919 16.5717L12.0576 17.0134L13.8258 17.9509L14.06 17.5092ZM13.359 15.8035L13.6965 17.7723L14.1893 17.6878L13.8518 15.7191L13.359 15.8035ZM13.3799 15.5056C13.3489 15.6019 13.3417 15.7043 13.3591 15.8041L13.8517 15.7185C13.8482 15.6986 13.8497 15.6781 13.8559 15.6588L13.3799 15.5056Z" fill="#6B7280"/>
</svg>
