<svg width="24" height="24" viewBox="0 0 24 24" fill="none" xmlns="http://www.w3.org/2000/svg">
<g id="log-out">
<path id="Vector" fill-rule="evenodd" clip-rule="evenodd" d="M5.75 5C5.75 4.30964 6.30964 3.75 7 3.75H17C17.6904 3.75 18.25 4.30964 18.25 5V6C18.25 6.41421 18.5858 6.75 19 6.75C19.4142 6.75 19.75 6.41421 19.75 6V5C19.75 3.48122 18.5188 2.25 17 2.25H7C5.48122 2.25 4.25 3.48122 4.25 5V19C4.25 20.5188 5.48122 21.75 7 21.75H17C18.5188 21.75 19.75 20.5188 19.75 19V18C19.75 17.5858 19.4142 17.25 19 17.25C18.5858 17.25 18.25 17.5858 18.25 18V19C18.25 19.6904 17.6904 20.25 17 20.25H7C6.30964 20.25 5.75 19.6904 5.75 19V5ZM16.5303 15.5303L19.5303 12.5303C19.8232 12.2374 19.8232 11.7626 19.5303 11.4697L16.5303 8.46967C16.2374 8.17678 15.7626 8.17678 15.4697 8.46967C15.1768 8.76256 15.1768 9.23744 15.4697 9.53033L17.1893 11.25H12C11.5858 11.25 11.25 11.5858 11.25 12C11.25 12.4142 11.5858 12.75 12 12.75H17.1893L15.4697 14.4697C15.1768 14.7626 15.1768 15.2374 15.4697 15.5303C15.7626 15.8232 16.2374 15.8232 16.5303 15.5303Z" fill="#F87171"/>
</g>
</svg>
