<svg width="24" height="24" viewBox="0 0 24 24" fill="none" xmlns="http://www.w3.org/2000/svg">
<g id="mastercard-card">
<path id="Vector" fill-rule="evenodd" clip-rule="evenodd" d="M1.25 7C1.25 5.48122 2.48122 4.25 4 4.25H20C21.5188 4.25 22.75 5.48122 22.75 7V9V17C22.75 18.5188 21.5188 19.75 20 19.75H4C2.48122 19.75 1.25 18.5188 1.25 17V7ZM4 5.75C3.30964 5.75 2.75 6.30964 2.75 7V17C2.75 17.6904 3.30964 18.25 4 18.25H20C20.6904 18.25 21.25 17.6904 21.25 17V9.75H6C5.58579 9.75 5.25 9.41421 5.25 9C5.25 8.58579 5.58579 8.25 6 8.25H21.25V7C21.25 6.30964 20.6904 5.75 20 5.75H4ZM16.8221 14.0595C16.6177 14.1568 16.38 14.1555 16.1779 14.0595C16.1124 14.0283 16.0506 13.9873 15.9949 13.9364C15.8623 13.8198 15.6902 13.75 15.5 13.75C15.0858 13.75 14.75 14.0858 14.75 14.5C14.75 14.9142 15.0858 15.25 15.5 15.25C15.6902 15.25 15.8623 15.1802 15.9949 15.0636C16.1368 14.934 16.318 14.8681 16.5 14.868C16.61 14.868 16.7202 14.892 16.8221 14.9405C16.8876 14.9717 16.9494 15.0127 17.0051 15.0636C17.1377 15.1802 17.3098 15.25 17.5 15.25C17.9142 15.25 18.25 14.9142 18.25 14.5C18.25 14.0858 17.9142 13.75 17.5 13.75C17.3098 13.75 17.1377 13.8198 17.0051 13.9364C16.9494 13.9873 16.8876 14.0283 16.8221 14.0595ZM16.5 16.5159C16.8014 16.6656 17.1412 16.75 17.5 16.75C18.7426 16.75 19.75 15.7426 19.75 14.5C19.75 13.2574 18.7426 12.25 17.5 12.25C17.1412 12.25 16.8014 12.3344 16.5 12.4841C16.1986 12.3344 15.8588 12.25 15.5 12.25C14.2574 12.25 13.25 13.2574 13.25 14.5C13.25 15.7426 14.2574 16.75 15.5 16.75C15.8588 16.75 16.1986 16.6656 16.5 16.5159Z" fill="#6B7280"/>
</g>
</svg>
