<svg width="22" height="22" viewBox="0 0 22 22" fill="none" xmlns="http://www.w3.org/2000/svg">
<path d="M17.4167 2.75H4.57417C3.56583 2.75 2.75 3.575 2.75 4.58333L2.75917 17.4167C2.75917 18.425 3.575 19.25 4.58333 19.25H13.75L19.25 13.75V4.58333C19.25 3.575 18.425 2.75 17.4167 2.75ZM7.33333 7.33333H14.6667C15.1708 7.33333 15.5833 7.74583 15.5833 8.25C15.5833 8.75417 15.1708 9.16667 14.6667 9.16667H7.33333C6.82917 9.16667 6.41667 8.75417 6.41667 8.25C6.41667 7.74583 6.82917 7.33333 7.33333 7.33333ZM10.0833 12.8333H7.33333C6.82917 12.8333 6.41667 12.4208 6.41667 11.9167C6.41667 11.4125 6.82917 11 7.33333 11H10.0833C10.5875 11 11 11.4125 11 11.9167C11 12.4208 10.5875 12.8333 10.0833 12.8333ZM12.8333 17.875V13.75C12.8333 13.2458 13.2458 12.8333 13.75 12.8333H17.875L12.8333 17.875Z" fill="#4B5563"/>
</svg>
