<svg width="20" height="20" viewBox="0 0 20 20" fill="none" xmlns="http://www.w3.org/2000/svg">
<g id="Notification">
<path id="Vector" fill-rule="evenodd" clip-rule="evenodd" d="M10.0001 1.04169C6.43321 1.04169 3.54172 3.93318 3.54172 7.50002V8.08677C3.54172 8.66754 3.36981 9.23531 3.04766 9.71854L2.09049 11.1543C0.979577 12.8207 1.82767 15.0857 3.75983 15.6126C4.3895 15.7844 5.0245 15.9296 5.66317 16.0484L5.66475 16.0527C6.30558 17.7626 8.01834 18.9584 10 18.9584C11.9817 18.9584 13.6944 17.7626 14.3352 16.0527L14.3368 16.0484C14.9755 15.9296 15.6106 15.7844 16.2403 15.6126C18.1724 15.0857 19.0205 12.8207 17.9096 11.1543L16.9524 9.71854C16.6303 9.23531 16.4584 8.66754 16.4584 8.08677V7.50002C16.4584 3.93318 13.5669 1.04169 10.0001 1.04169ZM12.8137 16.2808C10.9446 16.5041 9.05539 16.5041 7.18626 16.2808C7.77872 17.1321 8.8092 17.7084 10 17.7084C11.1908 17.7084 12.2213 17.1321 12.8137 16.2808ZM4.79172 7.50002C4.79172 4.62354 7.12357 2.29169 10.0001 2.29169C12.8765 2.29169 15.2084 4.62354 15.2084 7.50002V8.08677C15.2084 8.91432 15.4533 9.72336 15.9124 10.4119L16.8696 11.8477C17.5072 12.8041 17.0204 14.1042 15.9114 14.4067C12.0412 15.4622 7.95893 15.4622 4.08872 14.4067C2.9797 14.1042 2.49291 12.8041 3.13055 11.8477L4.08772 10.4119C4.54676 9.72336 4.79172 8.91432 4.79172 8.08677V7.50002Z" fill="#374151"/>
</g>
</svg>
