<svg width="16" height="16" viewBox="0 0 16 16" fill="none" xmlns="http://www.w3.org/2000/svg">
<path d="M11.333 13.3335H2.66634V4.66683C2.66634 4.30016 2.36634 4.00016 1.99967 4.00016C1.63301 4.00016 1.33301 4.30016 1.33301 4.66683V13.3335C1.33301 14.0668 1.93301 14.6668 2.66634 14.6668H11.333C11.6997 14.6668 11.9997 14.3668 11.9997 14.0002C11.9997 13.6335 11.6997 13.3335 11.333 13.3335Z" fill="#4B5563"/>
<path d="M13.333 1.3335H5.33301C4.59967 1.3335 3.99967 1.9335 3.99967 2.66683V10.6668C3.99967 11.4002 4.59967 12.0002 5.33301 12.0002H13.333C14.0663 12.0002 14.6663 11.4002 14.6663 10.6668V2.66683C14.6663 1.9335 14.0663 1.3335 13.333 1.3335ZM9.33967 10.0002C8.94634 10.0002 8.63967 9.68683 8.63967 9.30016C8.63967 8.90683 8.95301 8.60683 9.33967 8.60683C9.73301 8.60683 10.033 8.90683 10.033 9.30016C10.0263 9.68683 9.73301 10.0002 9.33967 10.0002ZM11.0063 5.88683C10.5863 6.50683 10.1863 6.6935 9.96634 7.0935C9.91301 7.18683 9.87967 7.26683 9.85967 7.42016C9.82634 7.68016 9.61967 7.8735 9.35967 7.8735H9.33967C9.04634 7.8735 8.81301 7.62016 8.83967 7.32683C8.85967 7.14016 8.89967 6.94683 9.00634 6.76683C9.27968 6.28016 9.79301 5.9935 10.093 5.56683C10.413 5.1135 10.233 4.2735 9.33301 4.2735C8.92634 4.2735 8.65967 4.48683 8.49301 4.74016C8.36634 4.9335 8.11301 5.00016 7.89967 4.90683C7.61968 4.78683 7.49967 4.44016 7.67301 4.1935C8.01301 3.70016 8.57967 3.3335 9.32634 3.3335C10.1463 3.3335 10.713 3.70683 10.9997 4.1735C11.2463 4.58016 11.3863 5.32683 11.0063 5.88683Z" fill="#4B5563"/>
</svg>
