<svg width="188" height="61" viewBox="0 0 188 61" fill="none" xmlns="http://www.w3.org/2000/svg">
<g clip-path="url(#clip0_5407_24306)">
<path d="M66.4917 14.1658L64.3417 17.5077L60.7383 23.1145C60.6306 23.0538 60.5235 22.9957 60.4157 22.9377C60.3052 22.8797 60.1975 22.825 60.0876 22.773C59.9744 22.715 59.8579 22.663 59.7392 22.6111C59.6349 22.5618 59.5244 22.5159 59.4166 22.4721C59.2919 22.4201 59.1638 22.3708 59.0357 22.3243C58.934 22.2865 58.8296 22.252 58.7279 22.217C58.3734 22.0982 58.0162 21.9969 57.6502 21.916C57.4204 21.8613 57.1879 21.8174 56.9554 21.7796C56.7928 21.7533 56.6301 21.7304 56.4701 21.7128C56.2722 21.6865 56.0777 21.6696 55.8804 21.6548C55.6215 21.6372 55.3605 21.6285 55.1016 21.6285C48.9327 21.6285 43.8938 26.5496 43.7366 32.6544H37.123C37.2796 22.9161 45.2854 15.0438 55.1016 15.0438C56.2119 15.0438 57.3099 15.145 58.3734 15.3421C58.3734 15.3421 58.3755 15.343 58.3795 15.3448H58.3822L58.3883 15.3475C58.4405 15.3616 58.4927 15.3792 58.5449 15.3907C58.7022 15.4372 58.8587 15.4804 59.016 15.5148C59.0655 15.5263 59.1177 15.5378 59.1672 15.5466C59.3854 15.5958 59.603 15.6363 59.8213 15.668C60.2862 15.7349 60.7512 15.7666 61.2047 15.7666C61.5619 15.7666 61.9137 15.7463 62.2655 15.7085C62.3814 15.6971 62.498 15.6795 62.6139 15.662C62.7298 15.6478 62.8464 15.6275 62.9596 15.6039C63.064 15.5864 63.169 15.5661 63.2734 15.5405C63.5147 15.4885 63.756 15.4251 63.9939 15.3522C64.0576 15.332 64.122 15.3117 64.1885 15.2888C64.261 15.2685 64.3335 15.2422 64.4033 15.2166C64.5165 15.1788 64.6297 15.1356 64.7402 15.089C64.848 15.0485 64.9551 15.0019 65.0601 14.9534C65.0662 14.9507 65.0717 14.9473 65.0778 14.9446C65.1855 14.9014 65.2899 14.8521 65.3943 14.7968C65.5021 14.7475 65.6065 14.6929 65.7108 14.6348C65.7136 14.6321 65.7197 14.6287 65.7251 14.626C65.8268 14.5741 65.9311 14.516 66.0301 14.4526C66.1345 14.3946 66.2362 14.3311 66.3378 14.2616C66.39 14.2299 66.4422 14.1982 66.4917 14.1631V14.1658Z" fill="#24A9E4"/>
<path d="M48.4922 42.1614L44.9235 47.7047C40.0384 44.3628 37.1211 38.8485 37.1211 32.9494C37.1211 32.8509 37.1211 32.7524 37.1238 32.6572H43.7373C43.7346 32.7558 43.7346 32.8509 43.7346 32.9494C43.7346 33.5602 43.7841 34.1615 43.883 34.7547C43.8946 34.8296 43.9061 34.9025 43.921 34.9774C43.9386 35.0874 43.9617 35.1947 43.9847 35.3014C44.0254 35.4984 44.0749 35.6948 44.1271 35.8885C44.2782 36.45 44.4727 36.9966 44.708 37.5257C44.7459 37.6155 44.7866 37.7025 44.83 37.7889C45.074 38.3099 45.362 38.8134 45.6874 39.2932C45.8704 39.5625 46.0683 39.8257 46.2744 40.0801C46.9109 40.8616 47.6517 41.5641 48.4916 42.16L48.4922 42.1614Z" fill="#005887"/>
<path d="M73.1518 32.9501C73.1518 42.8619 65.0559 50.9225 55.1007 50.9225C54.2141 50.9225 53.3397 50.8618 52.4796 50.7342C52.0031 50.6013 51.5117 50.5088 51.006 50.4596C50.7267 50.4332 50.4454 50.4191 50.1601 50.4191C48.0154 50.4191 46.0511 51.2033 44.543 52.5024L46.8388 48.9323L46.8564 48.906L46.8537 48.9033L46.8767 48.8716L50.4658 43.2904C50.5471 43.3282 50.6284 43.3626 50.7125 43.3944C50.8054 43.4349 50.8982 43.4726 50.9918 43.5071C51.0006 43.5131 51.0094 43.5158 51.0182 43.5185C51.1958 43.5854 51.3754 43.6488 51.5557 43.7095C51.5645 43.7122 51.5699 43.7156 51.5788 43.7183C51.7123 43.7615 51.8492 43.802 51.9854 43.8398C52.1278 43.8803 52.2728 43.9181 52.4186 43.9525C52.4999 43.9727 52.584 43.993 52.6687 44.0105C52.6863 44.0132 52.7067 44.0193 52.7236 44.022C52.8571 44.051 52.9879 44.0767 53.1215 44.0969C53.133 44.0996 53.1445 44.103 53.1533 44.103C53.3045 44.1293 53.4529 44.1522 53.6034 44.1725C53.7776 44.1954 53.9552 44.213 54.1321 44.2271C54.452 44.2535 54.774 44.2676 55.1 44.2676C61.3679 44.2676 66.4678 39.1899 66.4678 32.9494C66.4678 32.8509 66.4678 32.7558 66.4617 32.6572H73.145C73.1511 32.7558 73.1511 32.8509 73.1511 32.9494L73.1518 32.9501Z" fill="#DD5510"/>
<path d="M73.1469 32.6574H66.4636C66.4636 32.5447 66.4575 32.4319 66.4521 32.3186C66.4405 32.1249 66.4256 31.9278 66.4026 31.7341C66.3938 31.6356 66.3823 31.5344 66.368 31.4331C66.3538 31.3346 66.3389 31.2334 66.3213 31.1349C66.307 31.0363 66.2894 30.9378 66.2691 30.8399C66.2575 30.7677 66.2426 30.6921 66.2257 30.6199C66.2169 30.568 66.2053 30.5187 66.1938 30.4667C66.1328 30.1975 66.063 29.9343 65.9844 29.6738C65.9376 29.5206 65.8888 29.3701 65.8359 29.2223C65.798 29.115 65.7607 29.011 65.72 28.9037C65.7085 28.872 65.697 28.843 65.6855 28.8113C65.6129 28.6318 65.537 28.4496 65.4557 28.2734C65.3859 28.1202 65.3133 27.9697 65.2374 27.8219C65.1764 27.7032 65.1154 27.5878 65.0517 27.4717C65.049 27.469 65.049 27.4656 65.0456 27.4629C64.9731 27.33 64.8972 27.1997 64.8158 27.0722C64.7372 26.9419 64.6558 26.8144 64.5718 26.6875C64.5169 26.6038 64.4586 26.5194 64.4003 26.4385C64.3305 26.3345 64.2553 26.2333 64.1793 26.1348C63.9496 25.8338 63.7055 25.5443 63.4473 25.2642C63.3802 25.1893 63.3077 25.1137 63.2351 25.0442C63.1857 24.9922 63.1396 24.9429 63.0867 24.8937C63.0372 24.8444 62.985 24.7952 62.9328 24.7459C62.924 24.7371 62.9125 24.7256 62.901 24.7169C62.7993 24.6183 62.6949 24.5259 62.5898 24.4334L66.1816 18.8469L66.2047 18.8152L66.2223 18.7861C70.5488 22.1598 73.0629 27.2024 73.1469 32.656V32.6574Z" fill="#EF8902"/>
<path d="M36.94 18.3378C39.6682 18.3378 41.8799 16.1358 41.8799 13.4194C41.8799 10.703 39.6682 8.50098 36.94 8.50098C34.2117 8.50098 32 10.703 32 13.4194C32 16.1358 34.2117 18.3378 36.94 18.3378Z" fill="#F08803"/>
<path d="M79.3613 17.1348V32.187H83.3063V17.1348H79.3613Z" fill="#1756BD"/>
<path d="M92.5707 21.0703C91.2313 21.0703 90.1515 21.5636 89.3971 22.4234V21.2849H85.4434V32.1861H89.3971V26.4463C89.3971 25.2194 90.0654 24.5742 91.0815 24.5742C92.0087 24.5742 92.6567 25.1762 92.6567 26.2088V32.1867H96.6105V24.9845C96.6105 22.5334 94.8393 21.071 92.57 21.071L92.5707 21.0703Z" fill="#1756BD"/>
<path d="M101.988 24.2955C101.988 23.9081 102.442 23.6935 103.134 23.6935C104.32 23.6935 105.962 24.2294 107.948 25.2187V21.9733C106.373 21.2849 104.862 21.0703 103.499 21.0703C100.216 21.0703 98.0996 22.4666 98.0996 24.5742C98.0996 28.2954 104.688 27.5214 104.688 29.0898C104.688 29.4339 104.233 29.629 103.585 29.629C102.203 29.629 100.345 28.9838 98.3382 27.9715V31.412C100.195 32.1003 101.491 32.4013 103.133 32.4013C106.436 32.4013 108.596 31.0678 108.596 28.8974C108.596 24.9609 101.987 25.457 101.987 24.2955H101.988Z" fill="#1756BD"/>
<path d="M116.848 21.069C115.681 21.069 114.668 21.4989 113.911 22.273V21.2836H110.389V36.2704H113.911V31.2184C114.668 31.9695 115.661 32.3994 116.828 32.3994C119.872 32.3994 122.118 30.0772 122.118 26.7453C122.118 23.4135 119.871 21.0684 116.848 21.0684V21.069ZM115.92 28.9164C114.668 28.9164 113.78 28.0134 113.78 26.746C113.78 25.4786 114.668 24.5527 115.92 24.5527C117.173 24.5527 118.037 25.4557 118.037 26.746C118.037 28.0364 117.173 28.9164 115.92 28.9164Z" fill="#1756BD"/>
<path d="M127.487 21.3701V32.1876H123.85V21.3701C124.365 21.7312 124.993 21.9438 125.67 21.9438C126.346 21.9438 126.974 21.7318 127.487 21.3701Z" fill="#1756BD"/>
<path d="M136.822 21.1348C135.204 21.1348 134.167 21.7799 133.496 23.0932V21.2866H129.969V32.1877H133.496V28.5981C133.496 25.5018 134.878 24.7703 136.716 24.7703C137.364 24.7703 138.032 24.9626 138.377 25.2002V21.4155C138.098 21.2866 137.6 21.1348 136.822 21.1348Z" fill="#1756BD"/>
<path d="M144.9 21.0703C141.64 21.0703 139.092 23.4789 139.092 26.7041C139.092 30.1446 142.029 32.4013 145.917 32.4013C147.126 32.4013 148.431 32.2265 149.6 31.8338V28.4709C148.025 29.2308 146.957 29.2855 146.219 29.2855C144.598 29.2855 143.561 28.8326 143.129 27.6941H150.386C151.057 23.4796 148.465 21.071 144.9 21.071V21.0703ZM142.936 25.5859C143.153 24.4015 143.973 23.8859 144.987 23.8859C146.196 23.8859 146.585 24.7693 146.629 25.5859H142.936Z" fill="#1756BD"/>
<path d="M125.671 21.0819C126.944 21.0819 127.975 20.0549 127.975 18.788C127.975 17.5211 126.944 16.4941 125.671 16.4941C124.399 16.4941 123.367 17.5211 123.367 18.788C123.367 20.0549 124.399 21.0819 125.671 21.0819Z" fill="#EE8D0F"/>
<path d="M123.535 40.3793C123.535 42.8162 121.745 44.5061 119.251 44.5061C116.756 44.5061 114.979 42.8162 114.979 40.3793C114.979 37.9423 116.756 36.2295 119.251 36.2295C121.745 36.2295 123.535 37.9308 123.535 40.3793ZM121.849 40.3678C121.849 38.8385 120.752 37.7695 119.251 37.7695C117.749 37.7695 116.664 38.8385 116.664 40.3678C116.664 41.897 117.761 42.9653 119.251 42.9653C120.741 42.9653 121.849 41.8964 121.849 40.3678Z" fill="#22A7E8"/>
<path d="M130.221 40.8035V44.3897H128.72V41.1133C128.72 40.4924 128.305 40.0557 127.624 40.0557C126.873 40.0557 126.307 40.458 126.307 41.4581V44.3897H124.807V38.7573H126.307V39.2979C126.7 38.8727 127.266 38.6426 127.982 38.6426C129.206 38.6426 130.222 39.4355 130.222 40.8035H130.221Z" fill="#22A7E8"/>
<path d="M133.292 36.3438V44.3909H131.791V36.3438H133.292Z" fill="#22A7E8"/>
<path d="M136.407 36.3438V37.7691H134.906V36.3438H136.407ZM134.906 38.7578H136.407V44.3902H134.906V38.7578Z" fill="#22A7E8"/>
<path d="M143.44 40.8035V44.3897H141.939V41.1133C141.939 40.4924 141.524 40.0557 140.842 40.0557C140.092 40.0557 139.526 40.458 139.526 41.4581V44.3897H138.025V38.7573H139.526V39.2979C139.919 38.8727 140.485 38.6426 141.2 38.6426C142.424 38.6426 143.441 39.4355 143.441 40.8035H143.44Z" fill="#22A7E8"/>
<path d="M150.413 42.1384H146.314C146.568 42.9084 147.261 43.15 148.138 43.15C148.588 43.15 149.316 43.0927 150.285 42.4488V43.943C149.616 44.3911 148.669 44.5058 148.045 44.5058C146.082 44.5058 144.662 43.2877 144.662 41.5627C144.662 39.8378 145.932 38.6426 147.63 38.6426C149.327 38.6426 150.689 39.9073 150.412 42.137L150.413 42.1384ZM146.245 41.012H148.866C148.831 40.242 148.335 39.9201 147.676 39.9201C146.938 39.9201 146.395 40.2994 146.245 41.012Z" fill="#22A7E8"/>
</g>
<defs>
<clipPath id="clip0_5407_24306">
<rect width="124" height="44" fill="white" transform="translate(32 8.5)"/>
</clipPath>
</defs>
</svg>
